<mxfile host="Electron" modified="2023-10-17T21:59:02.840Z" agent="Mozilla/5.0 (X11; Linux x86_64) AppleWebKit/537.36 (KHTML, like Gecko) draw.io/22.0.2 Chrome/114.0.5735.289 Electron/25.8.4 Safari/537.36" etag="Tq7IgiV_lCkJzRQkcUCk" version="22.0.2" type="device">
  <diagram name="Page-1" id="B4qvIy8mpcsgMBtQM_Qw">
    <mxGraphModel dx="3567" dy="3054" grid="1" gridSize="10" guides="1" tooltips="1" connect="1" arrows="1" fold="1" page="1" pageScale="1" pageWidth="1200" pageHeight="1600" background="none" math="0" shadow="0">
      <root>
        <mxCell id="0" />
        <mxCell id="IUlH90X3DAipF4unwecq-12" value="DTO" style="" parent="0" />
        <mxCell id="IUlH90X3DAipF4unwecq-2" value="&amp;lt;&amp;lt;Trait &amp;gt;&amp;gt;&lt;br&gt;NodeData" style="swimlane;childLayout=stackLayout;horizontal=1;startSize=50;horizontalStack=0;rounded=1;fontSize=14;fontStyle=0;strokeWidth=2;resizeParent=0;resizeLast=1;shadow=0;dashed=0;align=center;arcSize=4;whiteSpace=wrap;html=1;" parent="IUlH90X3DAipF4unwecq-12" vertex="1">
          <mxGeometry x="290" y="470" width="340" height="180" as="geometry" />
        </mxCell>
        <mxCell id="IUlH90X3DAipF4unwecq-3" value="+ id: String&lt;br&gt;+ additionalFields: Option&amp;lt;UserDefinedNodeFields&amp;gt; {&lt;br&gt;&lt;span style=&quot;white-space: pre;&quot;&gt;&#x9;&lt;/span&gt;&lt;span style=&quot;white-space: pre;&quot;&gt;&#x9;&lt;/span&gt;+ description: Option&amp;lt;String&amp;gt;&lt;br&gt;&lt;span style=&quot;white-space: pre;&quot;&gt;&#x9;&lt;/span&gt;&lt;span style=&quot;white-space: pre;&quot;&gt;&#x9;&lt;/span&gt;+ layoutData: Option&amp;lt;LayoutData&amp;gt; {&lt;br&gt;&lt;span style=&quot;white-space: pre;&quot;&gt;&#x9;&lt;/span&gt;&lt;span style=&quot;white-space: pre;&quot;&gt;&#x9;&lt;span style=&quot;white-space: pre;&quot;&gt;&#x9;&lt;/span&gt;+&lt;/span&gt;&amp;nbsp;x: Long&lt;br&gt;&lt;span style=&quot;white-space: pre;&quot;&gt;&#x9;&lt;/span&gt;&lt;span style=&quot;white-space: pre;&quot;&gt;&#x9;&lt;/span&gt;&lt;span style=&quot;white-space: pre;&quot;&gt;&#x9;&lt;/span&gt;+ y: Long&lt;br&gt;&lt;span style=&quot;white-space: pre;&quot;&gt;&#x9;&lt;/span&gt;&lt;span style=&quot;white-space: pre;&quot;&gt;&#x9;&lt;/span&gt;}&lt;br&gt;&lt;span style=&quot;white-space: pre;&quot;&gt;&#x9;&lt;/span&gt;}" style="align=left;strokeColor=none;fillColor=none;spacingLeft=4;fontSize=12;verticalAlign=top;resizable=0;rotatable=0;part=1;html=1;" parent="IUlH90X3DAipF4unwecq-2" vertex="1">
          <mxGeometry y="50" width="340" height="130" as="geometry" />
        </mxCell>
        <mxCell id="IUlH90X3DAipF4unwecq-8" value="" style="edgeStyle=entityRelationEdgeStyle;fontSize=12;html=1;endArrow=ERoneToMany;rounded=0;" parent="IUlH90X3DAipF4unwecq-12" source="FE8MuQwXkAdMjyWSKSI8-186" target="IUlH90X3DAipF4unwecq-3" edge="1">
          <mxGeometry width="100" height="100" relative="1" as="geometry">
            <mxPoint x="55" y="270" as="sourcePoint" />
            <mxPoint x="155" y="170" as="targetPoint" />
            <Array as="points">
              <mxPoint x="30" y="440" />
            </Array>
          </mxGeometry>
        </mxCell>
        <mxCell id="IUlH90X3DAipF4unwecq-11" value="" style="edgeStyle=entityRelationEdgeStyle;fontSize=12;html=1;endArrow=ERmany;rounded=0;" parent="IUlH90X3DAipF4unwecq-12" source="IUlH90X3DAipF4unwecq-42" target="IUlH90X3DAipF4unwecq-46" edge="1">
          <mxGeometry width="100" height="100" relative="1" as="geometry">
            <mxPoint x="-175.00000000000009" y="780.0000000000002" as="sourcePoint" />
            <mxPoint x="-97.58000000000001" y="909.2300000000002" as="targetPoint" />
          </mxGeometry>
        </mxCell>
        <mxCell id="IUlH90X3DAipF4unwecq-20" value="ProcessProperties" style="swimlane;childLayout=stackLayout;horizontal=1;startSize=50;horizontalStack=0;rounded=1;fontSize=14;fontStyle=0;strokeWidth=2;resizeParent=0;resizeLast=1;shadow=0;dashed=0;align=center;arcSize=4;whiteSpace=wrap;html=1;" parent="IUlH90X3DAipF4unwecq-12" vertex="1">
          <mxGeometry x="-630" y="220" width="250" height="80" as="geometry" />
        </mxCell>
        <mxCell id="IUlH90X3DAipF4unwecq-21" value="+ additionalFields: ProcessAdditionalFields" style="align=left;strokeColor=none;fillColor=none;spacingLeft=4;fontSize=12;verticalAlign=top;resizable=0;rotatable=0;part=1;html=1;" parent="IUlH90X3DAipF4unwecq-20" vertex="1">
          <mxGeometry y="50" width="250" height="30" as="geometry" />
        </mxCell>
        <mxCell id="IUlH90X3DAipF4unwecq-23" value="" style="edgeStyle=entityRelationEdgeStyle;fontSize=12;html=1;endArrow=ERmandOne;startArrow=ERmandOne;rounded=0;" parent="IUlH90X3DAipF4unwecq-12" source="FE8MuQwXkAdMjyWSKSI8-124" target="IUlH90X3DAipF4unwecq-21" edge="1">
          <mxGeometry width="100" height="100" relative="1" as="geometry">
            <mxPoint x="-70" y="280" as="sourcePoint" />
            <mxPoint x="-270" y="340" as="targetPoint" />
          </mxGeometry>
        </mxCell>
        <mxCell id="IUlH90X3DAipF4unwecq-24" value="ProcessAdditionalFields" style="swimlane;childLayout=stackLayout;horizontal=1;startSize=50;horizontalStack=0;rounded=1;fontSize=14;fontStyle=0;strokeWidth=2;resizeParent=0;resizeLast=1;shadow=0;dashed=0;align=center;arcSize=4;whiteSpace=wrap;html=1;" parent="IUlH90X3DAipF4unwecq-12" vertex="1">
          <mxGeometry x="-1080" y="370" width="241" height="110" as="geometry" />
        </mxCell>
        <mxCell id="IUlH90X3DAipF4unwecq-25" value="+ description: Option&amp;lt;String&amp;gt;&lt;br&gt;+ properties: Map&amp;lt;String, String&amp;gt;&lt;br&gt;+ metaDataType: String" style="align=left;strokeColor=none;fillColor=none;spacingLeft=4;fontSize=12;verticalAlign=top;resizable=0;rotatable=0;part=1;html=1;" parent="IUlH90X3DAipF4unwecq-24" vertex="1">
          <mxGeometry y="50" width="241" height="60" as="geometry" />
        </mxCell>
        <mxCell id="IUlH90X3DAipF4unwecq-29" value="" style="edgeStyle=entityRelationEdgeStyle;fontSize=12;html=1;endArrow=ERmandOne;startArrow=ERmandOne;rounded=0;" parent="IUlH90X3DAipF4unwecq-12" source="IUlH90X3DAipF4unwecq-25" target="IUlH90X3DAipF4unwecq-21" edge="1">
          <mxGeometry width="100" height="100" relative="1" as="geometry">
            <mxPoint x="-720" y="400" as="sourcePoint" />
            <mxPoint x="-620" y="300" as="targetPoint" />
          </mxGeometry>
        </mxCell>
        <mxCell id="IUlH90X3DAipF4unwecq-41" value="CanonicalProcess" style="swimlane;childLayout=stackLayout;horizontal=1;startSize=50;horizontalStack=0;rounded=1;fontSize=14;fontStyle=0;strokeWidth=2;resizeParent=0;resizeLast=1;shadow=0;dashed=0;align=center;arcSize=4;whiteSpace=wrap;html=1;" parent="IUlH90X3DAipF4unwecq-12" vertex="1">
          <mxGeometry x="-220" y="720" width="320" height="110" as="geometry" />
        </mxCell>
        <mxCell id="IUlH90X3DAipF4unwecq-42" value="+ metaData: MetaData&lt;br&gt;+ nodes:&amp;nbsp; List&amp;lt;CanonicalNode&amp;gt;&lt;br&gt;+ additionalBranches: List&amp;lt;List&amp;lt;CanonicalNode&amp;gt;" style="align=left;strokeColor=none;fillColor=none;spacingLeft=4;fontSize=12;verticalAlign=top;resizable=0;rotatable=0;part=1;html=1;" parent="IUlH90X3DAipF4unwecq-41" vertex="1">
          <mxGeometry y="50" width="320" height="60" as="geometry" />
        </mxCell>
        <mxCell id="IUlH90X3DAipF4unwecq-45" value="CanonicalNode" style="swimlane;childLayout=stackLayout;horizontal=1;startSize=50;horizontalStack=0;rounded=1;fontSize=14;fontStyle=0;strokeWidth=2;resizeParent=0;resizeLast=1;shadow=0;dashed=0;align=center;arcSize=4;whiteSpace=wrap;html=1;" parent="IUlH90X3DAipF4unwecq-12" vertex="1">
          <mxGeometry x="380" y="770" width="160" height="120" as="geometry" />
        </mxCell>
        <mxCell id="IUlH90X3DAipF4unwecq-46" value="+ id: String&lt;br&gt;+ data: NodeData" style="align=left;strokeColor=none;fillColor=none;spacingLeft=4;fontSize=12;verticalAlign=top;resizable=0;rotatable=0;part=1;html=1;" parent="IUlH90X3DAipF4unwecq-45" vertex="1">
          <mxGeometry y="50" width="160" height="70" as="geometry" />
        </mxCell>
        <mxCell id="IUlH90X3DAipF4unwecq-47" value="MetaData" style="swimlane;childLayout=stackLayout;horizontal=1;startSize=50;horizontalStack=0;rounded=1;fontSize=14;fontStyle=0;strokeWidth=2;resizeParent=0;resizeLast=1;shadow=0;dashed=0;align=center;arcSize=4;whiteSpace=wrap;html=1;" parent="IUlH90X3DAipF4unwecq-12" vertex="1">
          <mxGeometry x="-615" y="670" width="240" height="90" as="geometry" />
        </mxCell>
        <mxCell id="IUlH90X3DAipF4unwecq-48" value="+ id: String&lt;br&gt;+ additionalFields: ProcessAdditionalFields" style="align=left;strokeColor=none;fillColor=none;spacingLeft=4;fontSize=12;verticalAlign=top;resizable=0;rotatable=0;part=1;html=1;" parent="IUlH90X3DAipF4unwecq-47" vertex="1">
          <mxGeometry y="50" width="240" height="40" as="geometry" />
        </mxCell>
        <mxCell id="IUlH90X3DAipF4unwecq-52" value="" style="edgeStyle=entityRelationEdgeStyle;fontSize=12;html=1;endArrow=ERmandOne;startArrow=ERmandOne;rounded=0;" parent="IUlH90X3DAipF4unwecq-12" source="IUlH90X3DAipF4unwecq-48" target="IUlH90X3DAipF4unwecq-42" edge="1">
          <mxGeometry width="100" height="100" relative="1" as="geometry">
            <mxPoint x="-530" y="450" as="sourcePoint" />
            <mxPoint x="-396" y="779" as="targetPoint" />
          </mxGeometry>
        </mxCell>
        <mxCell id="IUlH90X3DAipF4unwecq-55" value="" style="edgeStyle=entityRelationEdgeStyle;fontSize=12;html=1;endArrow=ERmandOne;startArrow=ERmandOne;rounded=0;" parent="IUlH90X3DAipF4unwecq-12" source="IUlH90X3DAipF4unwecq-46" target="IUlH90X3DAipF4unwecq-3" edge="1">
          <mxGeometry width="100" height="100" relative="1" as="geometry">
            <mxPoint x="160" y="670" as="sourcePoint" />
            <mxPoint x="278" y="749" as="targetPoint" />
          </mxGeometry>
        </mxCell>
        <mxCell id="IUlH90X3DAipF4unwecq-57" value="BaseProcessDetails" style="swimlane;childLayout=stackLayout;horizontal=1;startSize=50;horizontalStack=0;rounded=1;fontSize=14;fontStyle=0;strokeWidth=2;resizeParent=0;resizeLast=1;shadow=0;dashed=0;align=center;arcSize=4;whiteSpace=wrap;html=1;" parent="IUlH90X3DAipF4unwecq-12" vertex="1">
          <mxGeometry x="-240" y="1068.5" width="370" height="369" as="geometry" />
        </mxCell>
        <mxCell id="IUlH90X3DAipF4unwecq-58" value="+ id: String&lt;br&gt;+ name: String&lt;br&gt;+ processId: ProcessId (Long)&lt;br&gt;+ processVersionId: VersionId&lt;br&gt;+ isLatestVersion: Boolean&lt;br&gt;+ description: Option&amp;lt;String&amp;gt;&lt;br&gt;+ isArchived: Boolean&lt;br&gt;+ isFragment: Boolean&lt;br&gt;+ processingType: ProcessingType&lt;br&gt;+ processCategory: String&lt;br&gt;+ modificationDate: Instant&lt;br&gt;+ modifiedAt: Instant&lt;br&gt;+ createdAt: Instant&lt;br&gt;+ tags: List&amp;lt;String&amp;gt;&lt;br&gt;+ lastDeployedAction: Option&amp;lt;ProcessAction&amp;gt;&lt;br&gt;+ lastStateAction: Option&amp;lt;ProcessAction&amp;gt;&lt;br&gt;+ lastAction: Option&amp;lt;ProcessAction&amp;gt;&lt;br&gt;+ json: ProcessShape&amp;nbsp; - CanonicalProcess / DisplayableProcess&lt;br&gt;+ history: List&amp;lt;ProcessVersion&amp;gt;&lt;br&gt;+ modelVersion: Option&amp;lt;Int&amp;gt;&lt;br&gt;+ state:&amp;nbsp; Option&amp;lt;ProcessState&amp;gt;" style="align=left;strokeColor=none;fillColor=none;spacingLeft=4;fontSize=12;verticalAlign=top;resizable=0;rotatable=0;part=1;html=1;" parent="IUlH90X3DAipF4unwecq-57" vertex="1">
          <mxGeometry y="50" width="370" height="319" as="geometry" />
        </mxCell>
        <mxCell id="IUlH90X3DAipF4unwecq-60" value="" style="edgeStyle=entityRelationEdgeStyle;fontSize=12;html=1;endArrow=ERoneToMany;rounded=0;entryX=0.002;entryY=0.121;entryDx=0;entryDy=0;entryPerimeter=0;" parent="IUlH90X3DAipF4unwecq-12" source="FE8MuQwXkAdMjyWSKSI8-130" target="FE8MuQwXkAdMjyWSKSI8-202" edge="1">
          <mxGeometry width="100" height="100" relative="1" as="geometry">
            <mxPoint x="61" y="340" as="sourcePoint" />
            <mxPoint x="350" y="185" as="targetPoint" />
            <Array as="points">
              <mxPoint x="29" y="360" />
            </Array>
          </mxGeometry>
        </mxCell>
        <mxCell id="FE8MuQwXkAdMjyWSKSI8-8" value="" style="edgeStyle=entityRelationEdgeStyle;fontSize=12;html=1;endArrow=ERmandOne;startArrow=ERmandOne;rounded=0;" edge="1" parent="IUlH90X3DAipF4unwecq-12" source="IUlH90X3DAipF4unwecq-25" target="IUlH90X3DAipF4unwecq-48">
          <mxGeometry width="100" height="100" relative="1" as="geometry">
            <mxPoint x="-829" y="460" as="sourcePoint" />
            <mxPoint x="-610" y="315" as="targetPoint" />
          </mxGeometry>
        </mxCell>
        <mxCell id="FE8MuQwXkAdMjyWSKSI8-12" value="ProcessEntityData" style="swimlane;childLayout=stackLayout;horizontal=1;startSize=50;horizontalStack=0;rounded=1;fontSize=14;fontStyle=0;strokeWidth=2;resizeParent=0;resizeLast=1;shadow=0;dashed=0;align=center;arcSize=4;whiteSpace=wrap;html=1;" vertex="1" parent="IUlH90X3DAipF4unwecq-12">
          <mxGeometry x="-230" y="1600" width="265" height="200" as="geometry" />
        </mxCell>
        <mxCell id="FE8MuQwXkAdMjyWSKSI8-13" value="+ id: ProcessId&lt;br&gt;+ name: ProcessName&lt;br&gt;+ description: Option&amp;lt;String&amp;gt;&lt;br&gt;+ processCategory: String&lt;br&gt;+ processingType: ProcessingType&lt;br&gt;+ isFragment: Boolean&lt;br&gt;+ isArchived: Boolean&lt;br&gt;+ createdAt: Timestamp&lt;br&gt;+ createdBy: String" style="align=left;strokeColor=none;fillColor=none;spacingLeft=4;fontSize=12;verticalAlign=top;resizable=0;rotatable=0;part=1;html=1;" vertex="1" parent="FE8MuQwXkAdMjyWSKSI8-12">
          <mxGeometry y="50" width="265" height="150" as="geometry" />
        </mxCell>
        <mxCell id="FE8MuQwXkAdMjyWSKSI8-61" style="align=left;strokeColor=none;fillColor=none;spacingLeft=4;fontSize=12;verticalAlign=top;resizable=0;rotatable=0;part=1;html=1;" vertex="1" parent="FE8MuQwXkAdMjyWSKSI8-12">
          <mxGeometry y="200" width="265" as="geometry" />
        </mxCell>
        <mxCell id="FE8MuQwXkAdMjyWSKSI8-42" value="List" style="swimlane;fontStyle=0;childLayout=stackLayout;horizontal=1;startSize=26;horizontalStack=0;resizeParent=1;resizeParentMax=0;resizeLast=0;collapsible=1;marginBottom=0;align=center;fontSize=14;" vertex="1" parent="IUlH90X3DAipF4unwecq-12">
          <mxGeometry x="240" y="1530" width="160" height="146" as="geometry">
            <mxRectangle x="240" y="1530" width="60" height="30" as="alternateBounds" />
          </mxGeometry>
        </mxCell>
        <mxCell id="FE8MuQwXkAdMjyWSKSI8-46" value="Item 1" style="text;strokeColor=none;fillColor=none;spacingLeft=4;spacingRight=4;overflow=hidden;rotatable=0;points=[[0,0.5],[1,0.5]];portConstraint=eastwest;fontSize=12;whiteSpace=wrap;html=1;" vertex="1" parent="FE8MuQwXkAdMjyWSKSI8-42">
          <mxGeometry y="26" width="160" height="30" as="geometry" />
        </mxCell>
        <mxCell id="FE8MuQwXkAdMjyWSKSI8-43" value="Item 1" style="text;strokeColor=none;fillColor=none;spacingLeft=4;spacingRight=4;overflow=hidden;rotatable=0;points=[[0,0.5],[1,0.5]];portConstraint=eastwest;fontSize=12;whiteSpace=wrap;html=1;" vertex="1" parent="FE8MuQwXkAdMjyWSKSI8-42">
          <mxGeometry y="56" width="160" height="30" as="geometry" />
        </mxCell>
        <mxCell id="FE8MuQwXkAdMjyWSKSI8-44" value="Item 2" style="text;strokeColor=none;fillColor=none;spacingLeft=4;spacingRight=4;overflow=hidden;rotatable=0;points=[[0,0.5],[1,0.5]];portConstraint=eastwest;fontSize=12;whiteSpace=wrap;html=1;" vertex="1" parent="FE8MuQwXkAdMjyWSKSI8-42">
          <mxGeometry y="86" width="160" height="30" as="geometry" />
        </mxCell>
        <mxCell id="FE8MuQwXkAdMjyWSKSI8-45" value="Item 3" style="text;strokeColor=none;fillColor=none;spacingLeft=4;spacingRight=4;overflow=hidden;rotatable=0;points=[[0,0.5],[1,0.5]];portConstraint=eastwest;fontSize=12;whiteSpace=wrap;html=1;" vertex="1" parent="FE8MuQwXkAdMjyWSKSI8-42">
          <mxGeometry y="116" width="160" height="30" as="geometry" />
        </mxCell>
        <mxCell id="FE8MuQwXkAdMjyWSKSI8-49" value="Classname" style="swimlane;fontStyle=0;childLayout=stackLayout;horizontal=1;startSize=26;fillColor=none;horizontalStack=0;resizeParent=1;resizeParentMax=0;resizeLast=0;collapsible=1;marginBottom=0;whiteSpace=wrap;html=1;" vertex="1" parent="IUlH90X3DAipF4unwecq-12">
          <mxGeometry x="340" y="1150" width="140" height="206" as="geometry" />
        </mxCell>
        <mxCell id="FE8MuQwXkAdMjyWSKSI8-60" style="text;strokeColor=none;fillColor=none;align=left;verticalAlign=top;spacingLeft=4;spacingRight=4;overflow=hidden;rotatable=0;points=[[0,0.5],[1,0.5]];portConstraint=eastwest;whiteSpace=wrap;html=1;" vertex="1" parent="FE8MuQwXkAdMjyWSKSI8-49">
          <mxGeometry y="26" width="140" height="26" as="geometry" />
        </mxCell>
        <mxCell id="FE8MuQwXkAdMjyWSKSI8-59" style="text;strokeColor=none;fillColor=none;align=left;verticalAlign=top;spacingLeft=4;spacingRight=4;overflow=hidden;rotatable=0;points=[[0,0.5],[1,0.5]];portConstraint=eastwest;whiteSpace=wrap;html=1;" vertex="1" parent="FE8MuQwXkAdMjyWSKSI8-49">
          <mxGeometry y="52" width="140" height="26" as="geometry" />
        </mxCell>
        <mxCell id="FE8MuQwXkAdMjyWSKSI8-58" style="text;strokeColor=none;fillColor=none;align=left;verticalAlign=top;spacingLeft=4;spacingRight=4;overflow=hidden;rotatable=0;points=[[0,0.5],[1,0.5]];portConstraint=eastwest;whiteSpace=wrap;html=1;" vertex="1" parent="FE8MuQwXkAdMjyWSKSI8-49">
          <mxGeometry y="78" width="140" height="26" as="geometry" />
        </mxCell>
        <mxCell id="FE8MuQwXkAdMjyWSKSI8-57" style="text;strokeColor=none;fillColor=none;align=left;verticalAlign=top;spacingLeft=4;spacingRight=4;overflow=hidden;rotatable=0;points=[[0,0.5],[1,0.5]];portConstraint=eastwest;whiteSpace=wrap;html=1;" vertex="1" parent="FE8MuQwXkAdMjyWSKSI8-49">
          <mxGeometry y="104" width="140" height="26" as="geometry" />
        </mxCell>
        <mxCell id="FE8MuQwXkAdMjyWSKSI8-50" value="+ field: type" style="text;strokeColor=none;fillColor=none;align=left;verticalAlign=top;spacingLeft=4;spacingRight=4;overflow=hidden;rotatable=0;points=[[0,0.5],[1,0.5]];portConstraint=eastwest;whiteSpace=wrap;html=1;" vertex="1" parent="FE8MuQwXkAdMjyWSKSI8-49">
          <mxGeometry y="130" width="140" height="26" as="geometry" />
        </mxCell>
        <mxCell id="FE8MuQwXkAdMjyWSKSI8-51" value="+ field: type" style="text;strokeColor=none;fillColor=none;align=left;verticalAlign=top;spacingLeft=4;spacingRight=4;overflow=hidden;rotatable=0;points=[[0,0.5],[1,0.5]];portConstraint=eastwest;whiteSpace=wrap;html=1;" vertex="1" parent="FE8MuQwXkAdMjyWSKSI8-49">
          <mxGeometry y="156" width="140" height="26" as="geometry" />
        </mxCell>
        <mxCell id="FE8MuQwXkAdMjyWSKSI8-52" value="+ field: type" style="text;strokeColor=none;fillColor=none;align=left;verticalAlign=top;spacingLeft=4;spacingRight=4;overflow=hidden;rotatable=0;points=[[0,0.5],[1,0.5]];portConstraint=eastwest;whiteSpace=wrap;html=1;" vertex="1" parent="FE8MuQwXkAdMjyWSKSI8-49">
          <mxGeometry y="182" width="140" height="24" as="geometry" />
        </mxCell>
        <mxCell id="FE8MuQwXkAdMjyWSKSI8-54" value="+ field: type" style="text;strokeColor=none;fillColor=none;align=left;verticalAlign=top;spacingLeft=4;spacingRight=4;overflow=hidden;rotatable=0;points=[[0,0.5],[1,0.5]];portConstraint=eastwest;whiteSpace=wrap;html=1;" vertex="1" parent="IUlH90X3DAipF4unwecq-12">
          <mxGeometry x="340" y="1254" width="140" height="26" as="geometry" />
        </mxCell>
        <mxCell id="FE8MuQwXkAdMjyWSKSI8-55" value="+ field: type" style="text;strokeColor=none;fillColor=none;align=left;verticalAlign=top;spacingLeft=4;spacingRight=4;overflow=hidden;rotatable=0;points=[[0,0.5],[1,0.5]];portConstraint=eastwest;whiteSpace=wrap;html=1;" vertex="1" parent="IUlH90X3DAipF4unwecq-12">
          <mxGeometry x="340" y="1280" width="140" height="26" as="geometry" />
        </mxCell>
        <mxCell id="FE8MuQwXkAdMjyWSKSI8-56" value="+ field: type" style="text;strokeColor=none;fillColor=none;align=left;verticalAlign=top;spacingLeft=4;spacingRight=4;overflow=hidden;rotatable=0;points=[[0,0.5],[1,0.5]];portConstraint=eastwest;whiteSpace=wrap;html=1;" vertex="1" parent="IUlH90X3DAipF4unwecq-12">
          <mxGeometry x="340" y="1306" width="140" height="26" as="geometry" />
        </mxCell>
        <mxCell id="FE8MuQwXkAdMjyWSKSI8-63" value="CanonicalNode" style="swimlane;childLayout=stackLayout;horizontal=1;startSize=50;horizontalStack=0;rounded=1;fontSize=14;fontStyle=0;strokeWidth=2;resizeParent=0;resizeLast=1;shadow=0;dashed=0;align=center;arcSize=4;whiteSpace=wrap;html=1;" vertex="1" parent="IUlH90X3DAipF4unwecq-12">
          <mxGeometry x="600" y="970" width="160" height="80" as="geometry" />
        </mxCell>
        <mxCell id="FE8MuQwXkAdMjyWSKSI8-73" value="dfgd" style="align=left;spacingLeft=4;fontSize=12;verticalAlign=top;resizable=0;rotatable=0;part=1;html=1;container=1;" vertex="1" parent="FE8MuQwXkAdMjyWSKSI8-63">
          <mxGeometry y="50" width="160" height="70" as="geometry" />
        </mxCell>
        <mxCell id="FE8MuQwXkAdMjyWSKSI8-74" value="sd" style="align=left;strokeColor=none;fillColor=none;spacingLeft=4;fontSize=12;verticalAlign=top;resizable=0;rotatable=0;part=1;html=1;" vertex="1" parent="FE8MuQwXkAdMjyWSKSI8-63">
          <mxGeometry y="120" width="160" height="70" as="geometry" />
        </mxCell>
        <mxCell id="FE8MuQwXkAdMjyWSKSI8-64" value="+ id: String&lt;br&gt;+ data: NodeData" style="align=left;strokeColor=none;fillColor=none;spacingLeft=4;fontSize=12;verticalAlign=top;resizable=0;rotatable=0;part=1;html=1;" vertex="1" parent="FE8MuQwXkAdMjyWSKSI8-63">
          <mxGeometry y="190" width="160" height="70" as="geometry" />
        </mxCell>
        <mxCell id="FE8MuQwXkAdMjyWSKSI8-72" style="align=left;strokeColor=none;fillColor=none;spacingLeft=4;fontSize=12;verticalAlign=top;resizable=0;rotatable=0;part=1;html=1;" vertex="1" parent="FE8MuQwXkAdMjyWSKSI8-63">
          <mxGeometry y="260" width="160" height="70" as="geometry" />
        </mxCell>
        <mxCell id="FE8MuQwXkAdMjyWSKSI8-71" style="align=left;strokeColor=none;fillColor=none;spacingLeft=4;fontSize=12;verticalAlign=top;resizable=0;rotatable=0;part=1;html=1;" vertex="1" parent="FE8MuQwXkAdMjyWSKSI8-63">
          <mxGeometry y="330" width="160" height="-250" as="geometry" />
        </mxCell>
        <mxCell id="FE8MuQwXkAdMjyWSKSI8-75" value="Table" style="shape=table;startSize=30;container=1;collapsible=1;childLayout=tableLayout;fixedRows=1;rowLines=0;fontStyle=1;align=center;resizeLast=1;html=1;" vertex="1" parent="IUlH90X3DAipF4unwecq-12">
          <mxGeometry x="-430" y="1080" width="130" height="260" as="geometry" />
        </mxCell>
        <mxCell id="FE8MuQwXkAdMjyWSKSI8-79" value="" style="shape=tableRow;horizontal=0;startSize=0;swimlaneHead=0;swimlaneBody=0;fillColor=none;collapsible=0;dropTarget=0;points=[[0,0.5],[1,0.5]];portConstraint=eastwest;top=0;left=0;right=0;bottom=0;" vertex="1" parent="FE8MuQwXkAdMjyWSKSI8-75">
          <mxGeometry y="30" width="130" height="30" as="geometry" />
        </mxCell>
        <mxCell id="FE8MuQwXkAdMjyWSKSI8-81" value="f" style="shape=partialRectangle;connectable=0;fillColor=none;top=0;left=0;bottom=0;right=0;align=left;spacingLeft=6;overflow=hidden;whiteSpace=wrap;html=1;" vertex="1" parent="FE8MuQwXkAdMjyWSKSI8-79">
          <mxGeometry width="130" height="30" as="geometry">
            <mxRectangle width="130" height="30" as="alternateBounds" />
          </mxGeometry>
        </mxCell>
        <mxCell id="FE8MuQwXkAdMjyWSKSI8-82" value="" style="shape=tableRow;horizontal=0;startSize=0;swimlaneHead=0;swimlaneBody=0;fillColor=none;collapsible=0;dropTarget=0;points=[[0,0.5],[1,0.5]];portConstraint=eastwest;top=0;left=0;right=0;bottom=0;" vertex="1" parent="FE8MuQwXkAdMjyWSKSI8-75">
          <mxGeometry y="60" width="130" height="30" as="geometry" />
        </mxCell>
        <mxCell id="FE8MuQwXkAdMjyWSKSI8-84" value="Row 2" style="shape=partialRectangle;connectable=0;fillColor=none;top=0;left=0;bottom=0;right=0;align=left;spacingLeft=6;overflow=hidden;whiteSpace=wrap;html=1;" vertex="1" parent="FE8MuQwXkAdMjyWSKSI8-82">
          <mxGeometry width="130" height="30" as="geometry">
            <mxRectangle width="130" height="30" as="alternateBounds" />
          </mxGeometry>
        </mxCell>
        <mxCell id="FE8MuQwXkAdMjyWSKSI8-94" style="shape=tableRow;horizontal=0;startSize=0;swimlaneHead=0;swimlaneBody=0;fillColor=none;collapsible=0;dropTarget=0;points=[[0,0.5],[1,0.5]];portConstraint=eastwest;top=0;left=0;right=0;bottom=0;" vertex="1" parent="FE8MuQwXkAdMjyWSKSI8-75">
          <mxGeometry y="90" width="130" height="30" as="geometry" />
        </mxCell>
        <mxCell id="FE8MuQwXkAdMjyWSKSI8-96" style="shape=partialRectangle;connectable=0;fillColor=none;top=0;left=0;bottom=0;right=0;align=left;spacingLeft=6;overflow=hidden;whiteSpace=wrap;html=1;" vertex="1" parent="FE8MuQwXkAdMjyWSKSI8-94">
          <mxGeometry width="130" height="30" as="geometry">
            <mxRectangle width="130" height="30" as="alternateBounds" />
          </mxGeometry>
        </mxCell>
        <mxCell id="FE8MuQwXkAdMjyWSKSI8-113" style="shape=tableRow;horizontal=0;startSize=0;swimlaneHead=0;swimlaneBody=0;fillColor=none;collapsible=0;dropTarget=0;points=[[0,0.5],[1,0.5]];portConstraint=eastwest;top=0;left=0;right=0;bottom=0;" vertex="1" parent="FE8MuQwXkAdMjyWSKSI8-75">
          <mxGeometry y="120" width="130" height="30" as="geometry" />
        </mxCell>
        <mxCell id="FE8MuQwXkAdMjyWSKSI8-114" style="shape=partialRectangle;connectable=0;fillColor=none;top=0;left=0;bottom=0;right=0;align=left;spacingLeft=6;overflow=hidden;whiteSpace=wrap;html=1;" vertex="1" parent="FE8MuQwXkAdMjyWSKSI8-113">
          <mxGeometry width="130" height="30" as="geometry">
            <mxRectangle width="130" height="30" as="alternateBounds" />
          </mxGeometry>
        </mxCell>
        <mxCell id="FE8MuQwXkAdMjyWSKSI8-115" style="shape=tableRow;horizontal=0;startSize=0;swimlaneHead=0;swimlaneBody=0;fillColor=none;collapsible=0;dropTarget=0;points=[[0,0.5],[1,0.5]];portConstraint=eastwest;top=0;left=0;right=0;bottom=0;" vertex="1" parent="FE8MuQwXkAdMjyWSKSI8-75">
          <mxGeometry y="150" width="130" height="20" as="geometry" />
        </mxCell>
        <mxCell id="FE8MuQwXkAdMjyWSKSI8-116" style="shape=partialRectangle;connectable=0;fillColor=none;top=0;left=0;bottom=0;right=0;align=left;spacingLeft=6;overflow=hidden;whiteSpace=wrap;html=1;" vertex="1" parent="FE8MuQwXkAdMjyWSKSI8-115">
          <mxGeometry width="130" height="20" as="geometry">
            <mxRectangle width="130" height="20" as="alternateBounds" />
          </mxGeometry>
        </mxCell>
        <mxCell id="FE8MuQwXkAdMjyWSKSI8-117" style="shape=tableRow;horizontal=0;startSize=0;swimlaneHead=0;swimlaneBody=0;fillColor=none;collapsible=0;dropTarget=0;points=[[0,0.5],[1,0.5]];portConstraint=eastwest;top=0;left=0;right=0;bottom=0;" vertex="1" parent="FE8MuQwXkAdMjyWSKSI8-75">
          <mxGeometry y="170" width="130" height="30" as="geometry" />
        </mxCell>
        <mxCell id="FE8MuQwXkAdMjyWSKSI8-118" style="shape=partialRectangle;connectable=0;fillColor=none;top=0;left=0;bottom=0;right=0;align=left;spacingLeft=6;overflow=hidden;whiteSpace=wrap;html=1;" vertex="1" parent="FE8MuQwXkAdMjyWSKSI8-117">
          <mxGeometry width="130" height="30" as="geometry">
            <mxRectangle width="130" height="30" as="alternateBounds" />
          </mxGeometry>
        </mxCell>
        <mxCell id="FE8MuQwXkAdMjyWSKSI8-119" style="shape=tableRow;horizontal=0;startSize=0;swimlaneHead=0;swimlaneBody=0;fillColor=none;collapsible=0;dropTarget=0;points=[[0,0.5],[1,0.5]];portConstraint=eastwest;top=0;left=0;right=0;bottom=0;" vertex="1" parent="FE8MuQwXkAdMjyWSKSI8-75">
          <mxGeometry y="200" width="130" height="30" as="geometry" />
        </mxCell>
        <mxCell id="FE8MuQwXkAdMjyWSKSI8-120" style="shape=partialRectangle;connectable=0;fillColor=none;top=0;left=0;bottom=0;right=0;align=left;spacingLeft=6;overflow=hidden;whiteSpace=wrap;html=1;" vertex="1" parent="FE8MuQwXkAdMjyWSKSI8-119">
          <mxGeometry width="130" height="30" as="geometry">
            <mxRectangle width="130" height="30" as="alternateBounds" />
          </mxGeometry>
        </mxCell>
        <mxCell id="FE8MuQwXkAdMjyWSKSI8-85" value="" style="shape=tableRow;horizontal=0;startSize=0;swimlaneHead=0;swimlaneBody=0;fillColor=none;collapsible=0;dropTarget=0;points=[[0,0.5],[1,0.5]];portConstraint=eastwest;top=0;left=0;right=0;bottom=0;" vertex="1" parent="FE8MuQwXkAdMjyWSKSI8-75">
          <mxGeometry y="230" width="130" height="30" as="geometry" />
        </mxCell>
        <mxCell id="FE8MuQwXkAdMjyWSKSI8-87" value="Row 3" style="shape=partialRectangle;connectable=0;fillColor=none;top=0;left=0;bottom=0;right=0;align=left;spacingLeft=6;overflow=hidden;whiteSpace=wrap;html=1;" vertex="1" parent="FE8MuQwXkAdMjyWSKSI8-85">
          <mxGeometry width="130" height="30" as="geometry">
            <mxRectangle width="130" height="30" as="alternateBounds" />
          </mxGeometry>
        </mxCell>
        <mxCell id="FE8MuQwXkAdMjyWSKSI8-121" value="&lt;font style=&quot;font-size: 14px;&quot;&gt;DisplayableProcess&lt;/font&gt;" style="shape=table;startSize=30;container=1;collapsible=1;childLayout=tableLayout;fixedRows=1;rowLines=0;fontStyle=1;align=center;resizeLast=1;html=1;strokeWidth=2;rounded=0;shadow=0;swimlaneLine=1;perimeterSpacing=0;" vertex="1" parent="IUlH90X3DAipF4unwecq-12">
          <mxGeometry x="-210" y="210" width="280" height="210" as="geometry">
            <mxRectangle x="-180" y="25" width="170" height="30" as="alternateBounds" />
          </mxGeometry>
        </mxCell>
        <mxCell id="FE8MuQwXkAdMjyWSKSI8-122" value="" style="shape=tableRow;horizontal=0;startSize=0;swimlaneHead=0;swimlaneBody=0;fillColor=none;collapsible=0;dropTarget=0;points=[[0,0.5],[1,0.5]];portConstraint=eastwest;top=0;left=0;right=0;bottom=0;" vertex="1" parent="FE8MuQwXkAdMjyWSKSI8-121">
          <mxGeometry y="30" width="280" height="30" as="geometry" />
        </mxCell>
        <mxCell id="FE8MuQwXkAdMjyWSKSI8-140" value="id" style="shape=partialRectangle;connectable=0;fillColor=none;top=0;left=0;bottom=0;right=0;align=left;spacingLeft=6;overflow=hidden;whiteSpace=wrap;html=1;" vertex="1" parent="FE8MuQwXkAdMjyWSKSI8-122">
          <mxGeometry width="100" height="30" as="geometry">
            <mxRectangle width="100" height="30" as="alternateBounds" />
          </mxGeometry>
        </mxCell>
        <mxCell id="FE8MuQwXkAdMjyWSKSI8-123" value="String" style="shape=partialRectangle;connectable=0;fillColor=none;top=0;left=0;bottom=0;right=0;align=left;spacingLeft=6;overflow=hidden;whiteSpace=wrap;html=1;" vertex="1" parent="FE8MuQwXkAdMjyWSKSI8-122">
          <mxGeometry x="100" width="180" height="30" as="geometry">
            <mxRectangle width="180" height="30" as="alternateBounds" />
          </mxGeometry>
        </mxCell>
        <mxCell id="FE8MuQwXkAdMjyWSKSI8-124" value="" style="shape=tableRow;horizontal=0;startSize=0;swimlaneHead=0;swimlaneBody=0;fillColor=none;collapsible=0;dropTarget=0;points=[[0,0.5],[1,0.5]];portConstraint=eastwest;top=0;left=0;right=0;bottom=0;" vertex="1" parent="FE8MuQwXkAdMjyWSKSI8-121">
          <mxGeometry y="60" width="280" height="30" as="geometry" />
        </mxCell>
        <mxCell id="FE8MuQwXkAdMjyWSKSI8-141" value="properties" style="shape=partialRectangle;connectable=0;fillColor=none;top=0;left=0;bottom=0;right=0;align=left;spacingLeft=6;overflow=hidden;whiteSpace=wrap;html=1;" vertex="1" parent="FE8MuQwXkAdMjyWSKSI8-124">
          <mxGeometry width="100" height="30" as="geometry">
            <mxRectangle width="100" height="30" as="alternateBounds" />
          </mxGeometry>
        </mxCell>
        <mxCell id="FE8MuQwXkAdMjyWSKSI8-125" value="ProcessProperties" style="shape=partialRectangle;connectable=0;fillColor=none;top=0;left=0;bottom=0;right=0;align=left;spacingLeft=6;overflow=hidden;whiteSpace=wrap;html=1;" vertex="1" parent="FE8MuQwXkAdMjyWSKSI8-124">
          <mxGeometry x="100" width="180" height="30" as="geometry">
            <mxRectangle width="180" height="30" as="alternateBounds" />
          </mxGeometry>
        </mxCell>
        <mxCell id="FE8MuQwXkAdMjyWSKSI8-126" style="shape=tableRow;horizontal=0;startSize=0;swimlaneHead=0;swimlaneBody=0;fillColor=none;collapsible=0;dropTarget=0;points=[[0,0.5],[1,0.5]];portConstraint=eastwest;top=0;left=0;right=0;bottom=0;" vertex="1" parent="FE8MuQwXkAdMjyWSKSI8-121">
          <mxGeometry y="90" width="280" height="30" as="geometry" />
        </mxCell>
        <mxCell id="FE8MuQwXkAdMjyWSKSI8-142" value="processingType" style="shape=partialRectangle;connectable=0;fillColor=none;top=0;left=0;bottom=0;right=0;align=left;spacingLeft=6;overflow=hidden;whiteSpace=wrap;html=1;" vertex="1" parent="FE8MuQwXkAdMjyWSKSI8-126">
          <mxGeometry width="100" height="30" as="geometry">
            <mxRectangle width="100" height="30" as="alternateBounds" />
          </mxGeometry>
        </mxCell>
        <mxCell id="FE8MuQwXkAdMjyWSKSI8-127" value="ProcessingType" style="shape=partialRectangle;connectable=0;fillColor=none;top=0;left=0;bottom=0;right=0;align=left;spacingLeft=6;overflow=hidden;whiteSpace=wrap;html=1;" vertex="1" parent="FE8MuQwXkAdMjyWSKSI8-126">
          <mxGeometry x="100" width="180" height="30" as="geometry">
            <mxRectangle width="180" height="30" as="alternateBounds" />
          </mxGeometry>
        </mxCell>
        <mxCell id="FE8MuQwXkAdMjyWSKSI8-128" style="shape=tableRow;horizontal=0;startSize=0;swimlaneHead=0;swimlaneBody=0;fillColor=none;collapsible=0;dropTarget=0;points=[[0,0.5],[1,0.5]];portConstraint=eastwest;top=0;left=0;right=0;bottom=0;" vertex="1" parent="FE8MuQwXkAdMjyWSKSI8-121">
          <mxGeometry y="120" width="280" height="30" as="geometry" />
        </mxCell>
        <mxCell id="FE8MuQwXkAdMjyWSKSI8-143" value="category" style="shape=partialRectangle;connectable=0;fillColor=none;top=0;left=0;bottom=0;right=0;align=left;spacingLeft=6;overflow=hidden;whiteSpace=wrap;html=1;" vertex="1" parent="FE8MuQwXkAdMjyWSKSI8-128">
          <mxGeometry width="100" height="30" as="geometry">
            <mxRectangle width="100" height="30" as="alternateBounds" />
          </mxGeometry>
        </mxCell>
        <mxCell id="FE8MuQwXkAdMjyWSKSI8-129" value="String" style="shape=partialRectangle;connectable=0;fillColor=none;top=0;left=0;bottom=0;right=0;align=left;spacingLeft=6;overflow=hidden;whiteSpace=wrap;html=1;" vertex="1" parent="FE8MuQwXkAdMjyWSKSI8-128">
          <mxGeometry x="100" width="180" height="30" as="geometry">
            <mxRectangle width="180" height="30" as="alternateBounds" />
          </mxGeometry>
        </mxCell>
        <mxCell id="FE8MuQwXkAdMjyWSKSI8-130" style="shape=tableRow;horizontal=0;startSize=0;swimlaneHead=0;swimlaneBody=0;fillColor=none;collapsible=0;dropTarget=0;points=[[0,0.5],[1,0.5]];portConstraint=eastwest;top=0;left=0;right=0;bottom=0;" vertex="1" parent="FE8MuQwXkAdMjyWSKSI8-121">
          <mxGeometry y="150" width="280" height="30" as="geometry" />
        </mxCell>
        <mxCell id="FE8MuQwXkAdMjyWSKSI8-144" value="edges" style="shape=partialRectangle;connectable=0;fillColor=none;top=0;left=0;bottom=0;right=0;align=left;spacingLeft=6;overflow=hidden;whiteSpace=wrap;html=1;" vertex="1" parent="FE8MuQwXkAdMjyWSKSI8-130">
          <mxGeometry width="100" height="30" as="geometry">
            <mxRectangle width="100" height="30" as="alternateBounds" />
          </mxGeometry>
        </mxCell>
        <mxCell id="FE8MuQwXkAdMjyWSKSI8-131" value="List&amp;lt;Edge&amp;gt;" style="shape=partialRectangle;connectable=0;fillColor=none;top=0;left=0;bottom=0;right=0;align=left;spacingLeft=6;overflow=hidden;whiteSpace=wrap;html=1;" vertex="1" parent="FE8MuQwXkAdMjyWSKSI8-130">
          <mxGeometry x="100" width="180" height="30" as="geometry">
            <mxRectangle width="180" height="30" as="alternateBounds" />
          </mxGeometry>
        </mxCell>
        <mxCell id="FE8MuQwXkAdMjyWSKSI8-186" style="shape=tableRow;horizontal=0;startSize=0;swimlaneHead=0;swimlaneBody=0;fillColor=none;collapsible=0;dropTarget=0;points=[[0,0.5],[1,0.5]];portConstraint=eastwest;top=0;left=0;right=0;bottom=0;" vertex="1" parent="FE8MuQwXkAdMjyWSKSI8-121">
          <mxGeometry y="180" width="280" height="30" as="geometry" />
        </mxCell>
        <mxCell id="FE8MuQwXkAdMjyWSKSI8-187" value="nodes" style="shape=partialRectangle;connectable=0;fillColor=none;top=0;left=0;bottom=0;right=0;align=left;spacingLeft=6;overflow=hidden;whiteSpace=wrap;html=1;" vertex="1" parent="FE8MuQwXkAdMjyWSKSI8-186">
          <mxGeometry width="100" height="30" as="geometry">
            <mxRectangle width="100" height="30" as="alternateBounds" />
          </mxGeometry>
        </mxCell>
        <mxCell id="FE8MuQwXkAdMjyWSKSI8-188" value="List&amp;lt;NodeData&amp;gt;" style="shape=partialRectangle;connectable=0;fillColor=none;top=0;left=0;bottom=0;right=0;align=left;spacingLeft=6;overflow=hidden;whiteSpace=wrap;html=1;" vertex="1" parent="FE8MuQwXkAdMjyWSKSI8-186">
          <mxGeometry x="100" width="180" height="30" as="geometry">
            <mxRectangle width="180" height="30" as="alternateBounds" />
          </mxGeometry>
        </mxCell>
        <mxCell id="FE8MuQwXkAdMjyWSKSI8-202" value="&lt;span style=&quot;font-size: 14px;&quot;&gt;Edge&lt;/span&gt;" style="shape=table;startSize=30;container=1;collapsible=1;childLayout=tableLayout;fixedRows=1;rowLines=0;fontStyle=1;align=center;resizeLast=1;html=1;gradientColor=none;swimlaneFillColor=none;strokeWidth=2;" vertex="1" parent="IUlH90X3DAipF4unwecq-12">
          <mxGeometry x="320" y="180" width="190" height="120" as="geometry" />
        </mxCell>
        <mxCell id="FE8MuQwXkAdMjyWSKSI8-203" value="" style="shape=tableRow;horizontal=0;startSize=0;swimlaneHead=0;swimlaneBody=0;fillColor=none;collapsible=0;dropTarget=0;points=[[0,0.5],[1,0.5]];portConstraint=eastwest;top=0;left=0;right=0;bottom=0;labelBorderColor=default;swimlaneFillColor=none;" vertex="1" parent="FE8MuQwXkAdMjyWSKSI8-202">
          <mxGeometry y="30" width="190" height="30" as="geometry" />
        </mxCell>
        <mxCell id="FE8MuQwXkAdMjyWSKSI8-204" value="from" style="shape=partialRectangle;connectable=0;fillColor=none;top=0;left=0;bottom=0;right=0;align=left;spacingLeft=6;overflow=hidden;whiteSpace=wrap;html=1;" vertex="1" parent="FE8MuQwXkAdMjyWSKSI8-203">
          <mxGeometry width="70" height="30" as="geometry">
            <mxRectangle width="70" height="30" as="alternateBounds" />
          </mxGeometry>
        </mxCell>
        <mxCell id="FE8MuQwXkAdMjyWSKSI8-205" value="String" style="shape=partialRectangle;connectable=0;fillColor=none;top=0;left=0;bottom=0;right=0;align=left;spacingLeft=6;overflow=hidden;whiteSpace=wrap;html=1;perimeterSpacing=1;" vertex="1" parent="FE8MuQwXkAdMjyWSKSI8-203">
          <mxGeometry x="70" width="120" height="30" as="geometry">
            <mxRectangle width="120" height="30" as="alternateBounds" />
          </mxGeometry>
        </mxCell>
        <mxCell id="FE8MuQwXkAdMjyWSKSI8-206" value="" style="shape=tableRow;horizontal=0;startSize=0;swimlaneHead=0;swimlaneBody=0;fillColor=none;collapsible=0;dropTarget=0;points=[[0,0.5],[1,0.5]];portConstraint=eastwest;top=0;left=0;right=0;bottom=0;" vertex="1" parent="FE8MuQwXkAdMjyWSKSI8-202">
          <mxGeometry y="60" width="190" height="30" as="geometry" />
        </mxCell>
        <mxCell id="FE8MuQwXkAdMjyWSKSI8-207" value="to" style="shape=partialRectangle;connectable=0;fillColor=none;top=0;left=0;bottom=0;right=0;align=left;spacingLeft=6;overflow=hidden;whiteSpace=wrap;html=1;" vertex="1" parent="FE8MuQwXkAdMjyWSKSI8-206">
          <mxGeometry width="70" height="30" as="geometry">
            <mxRectangle width="70" height="30" as="alternateBounds" />
          </mxGeometry>
        </mxCell>
        <mxCell id="FE8MuQwXkAdMjyWSKSI8-208" value="String" style="shape=partialRectangle;connectable=0;fillColor=none;top=0;left=0;bottom=0;right=0;align=left;spacingLeft=6;overflow=hidden;whiteSpace=wrap;html=1;" vertex="1" parent="FE8MuQwXkAdMjyWSKSI8-206">
          <mxGeometry x="70" width="120" height="30" as="geometry">
            <mxRectangle width="120" height="30" as="alternateBounds" />
          </mxGeometry>
        </mxCell>
        <mxCell id="FE8MuQwXkAdMjyWSKSI8-209" style="shape=tableRow;horizontal=0;startSize=0;swimlaneHead=0;swimlaneBody=0;fillColor=none;collapsible=0;dropTarget=0;points=[[0,0.5],[1,0.5]];portConstraint=eastwest;top=0;left=0;right=0;bottom=0;" vertex="1" parent="FE8MuQwXkAdMjyWSKSI8-202">
          <mxGeometry y="90" width="190" height="30" as="geometry" />
        </mxCell>
        <mxCell id="FE8MuQwXkAdMjyWSKSI8-210" value="edgeType" style="shape=partialRectangle;connectable=0;fillColor=none;top=0;left=0;bottom=0;right=0;align=left;spacingLeft=6;overflow=hidden;whiteSpace=wrap;html=1;" vertex="1" parent="FE8MuQwXkAdMjyWSKSI8-209">
          <mxGeometry width="70" height="30" as="geometry">
            <mxRectangle width="70" height="30" as="alternateBounds" />
          </mxGeometry>
        </mxCell>
        <mxCell id="FE8MuQwXkAdMjyWSKSI8-211" value="Option&amp;lt;EdgeType&amp;gt;" style="shape=partialRectangle;connectable=0;fillColor=none;top=0;left=0;bottom=0;right=0;align=left;spacingLeft=6;overflow=hidden;whiteSpace=wrap;html=1;" vertex="1" parent="FE8MuQwXkAdMjyWSKSI8-209">
          <mxGeometry x="70" width="120" height="30" as="geometry">
            <mxRectangle width="120" height="30" as="alternateBounds" />
          </mxGeometry>
        </mxCell>
        <mxCell id="FE8MuQwXkAdMjyWSKSI8-227" value="&lt;span style=&quot;font-size: 14px;&quot;&gt;Edge&lt;/span&gt;" style="shape=table;startSize=30;container=1;collapsible=1;childLayout=tableLayout;fixedRows=1;rowLines=0;fontStyle=1;align=center;resizeLast=1;html=1;gradientColor=none;swimlaneFillColor=none;strokeWidth=2;" vertex="1" parent="IUlH90X3DAipF4unwecq-12">
          <mxGeometry x="-615" y="-90" width="375" height="60" as="geometry" />
        </mxCell>
        <mxCell id="FE8MuQwXkAdMjyWSKSI8-228" value="" style="shape=tableRow;horizontal=0;startSize=0;swimlaneHead=0;swimlaneBody=0;fillColor=none;collapsible=0;dropTarget=0;points=[[0,0.5],[1,0.5]];portConstraint=eastwest;top=0;left=0;right=0;bottom=0;labelBorderColor=default;swimlaneFillColor=none;" vertex="1" parent="FE8MuQwXkAdMjyWSKSI8-227">
          <mxGeometry y="30" width="375" height="30" as="geometry" />
        </mxCell>
        <mxCell id="FE8MuQwXkAdMjyWSKSI8-229" value="additionalFields" style="shape=partialRectangle;connectable=0;fillColor=none;top=0;left=0;bottom=0;right=0;align=left;spacingLeft=6;overflow=hidden;whiteSpace=wrap;html=1;" vertex="1" parent="FE8MuQwXkAdMjyWSKSI8-228">
          <mxGeometry width="105" height="30" as="geometry">
            <mxRectangle width="105" height="30" as="alternateBounds" />
          </mxGeometry>
        </mxCell>
        <mxCell id="FE8MuQwXkAdMjyWSKSI8-230" value="ProcessAdditionalFields" style="shape=partialRectangle;connectable=0;fillColor=none;top=0;left=0;bottom=0;right=0;align=left;spacingLeft=6;overflow=hidden;whiteSpace=wrap;html=1;perimeterSpacing=1;" vertex="1" parent="FE8MuQwXkAdMjyWSKSI8-228">
          <mxGeometry x="105" width="270" height="30" as="geometry">
            <mxRectangle width="270" height="30" as="alternateBounds" />
          </mxGeometry>
        </mxCell>
        <mxCell id="FE8MuQwXkAdMjyWSKSI8-237" value="&lt;span style=&quot;font-size: 14px;&quot;&gt;Edge&lt;/span&gt;" style="shape=table;startSize=30;container=1;collapsible=1;childLayout=tableLayout;fixedRows=1;rowLines=0;fontStyle=1;align=center;resizeLast=1;html=1;gradientColor=none;swimlaneFillColor=none;strokeWidth=2;" vertex="1" parent="IUlH90X3DAipF4unwecq-12">
          <mxGeometry x="140" y="-240" width="190" height="120" as="geometry" />
        </mxCell>
        <mxCell id="FE8MuQwXkAdMjyWSKSI8-238" value="" style="shape=tableRow;horizontal=0;startSize=0;swimlaneHead=0;swimlaneBody=0;fillColor=none;collapsible=0;dropTarget=0;points=[[0,0.5],[1,0.5]];portConstraint=eastwest;top=0;left=0;right=0;bottom=0;labelBorderColor=default;swimlaneFillColor=none;" vertex="1" parent="FE8MuQwXkAdMjyWSKSI8-237">
          <mxGeometry y="30" width="190" height="30" as="geometry" />
        </mxCell>
        <mxCell id="FE8MuQwXkAdMjyWSKSI8-239" value="from" style="shape=partialRectangle;connectable=0;fillColor=none;top=0;left=0;bottom=0;right=0;align=left;spacingLeft=6;overflow=hidden;whiteSpace=wrap;html=1;" vertex="1" parent="FE8MuQwXkAdMjyWSKSI8-238">
          <mxGeometry width="70" height="30" as="geometry">
            <mxRectangle width="70" height="30" as="alternateBounds" />
          </mxGeometry>
        </mxCell>
        <mxCell id="FE8MuQwXkAdMjyWSKSI8-240" value="String" style="shape=partialRectangle;connectable=0;fillColor=none;top=0;left=0;bottom=0;right=0;align=left;spacingLeft=6;overflow=hidden;whiteSpace=wrap;html=1;perimeterSpacing=1;" vertex="1" parent="FE8MuQwXkAdMjyWSKSI8-238">
          <mxGeometry x="70" width="120" height="30" as="geometry">
            <mxRectangle width="120" height="30" as="alternateBounds" />
          </mxGeometry>
        </mxCell>
        <mxCell id="FE8MuQwXkAdMjyWSKSI8-241" value="" style="shape=tableRow;horizontal=0;startSize=0;swimlaneHead=0;swimlaneBody=0;fillColor=none;collapsible=0;dropTarget=0;points=[[0,0.5],[1,0.5]];portConstraint=eastwest;top=0;left=0;right=0;bottom=0;" vertex="1" parent="FE8MuQwXkAdMjyWSKSI8-237">
          <mxGeometry y="60" width="190" height="30" as="geometry" />
        </mxCell>
        <mxCell id="FE8MuQwXkAdMjyWSKSI8-242" value="to" style="shape=partialRectangle;connectable=0;fillColor=none;top=0;left=0;bottom=0;right=0;align=left;spacingLeft=6;overflow=hidden;whiteSpace=wrap;html=1;" vertex="1" parent="FE8MuQwXkAdMjyWSKSI8-241">
          <mxGeometry width="70" height="30" as="geometry">
            <mxRectangle width="70" height="30" as="alternateBounds" />
          </mxGeometry>
        </mxCell>
        <mxCell id="FE8MuQwXkAdMjyWSKSI8-243" value="String" style="shape=partialRectangle;connectable=0;fillColor=none;top=0;left=0;bottom=0;right=0;align=left;spacingLeft=6;overflow=hidden;whiteSpace=wrap;html=1;" vertex="1" parent="FE8MuQwXkAdMjyWSKSI8-241">
          <mxGeometry x="70" width="120" height="30" as="geometry">
            <mxRectangle width="120" height="30" as="alternateBounds" />
          </mxGeometry>
        </mxCell>
        <mxCell id="FE8MuQwXkAdMjyWSKSI8-244" style="shape=tableRow;horizontal=0;startSize=0;swimlaneHead=0;swimlaneBody=0;fillColor=none;collapsible=0;dropTarget=0;points=[[0,0.5],[1,0.5]];portConstraint=eastwest;top=0;left=0;right=0;bottom=0;" vertex="1" parent="FE8MuQwXkAdMjyWSKSI8-237">
          <mxGeometry y="90" width="190" height="30" as="geometry" />
        </mxCell>
        <mxCell id="FE8MuQwXkAdMjyWSKSI8-245" value="edgeType" style="shape=partialRectangle;connectable=0;fillColor=none;top=0;left=0;bottom=0;right=0;align=left;spacingLeft=6;overflow=hidden;whiteSpace=wrap;html=1;" vertex="1" parent="FE8MuQwXkAdMjyWSKSI8-244">
          <mxGeometry width="70" height="30" as="geometry">
            <mxRectangle width="70" height="30" as="alternateBounds" />
          </mxGeometry>
        </mxCell>
        <mxCell id="FE8MuQwXkAdMjyWSKSI8-246" value="Option&amp;lt;EdgeType&amp;gt;" style="shape=partialRectangle;connectable=0;fillColor=none;top=0;left=0;bottom=0;right=0;align=left;spacingLeft=6;overflow=hidden;whiteSpace=wrap;html=1;" vertex="1" parent="FE8MuQwXkAdMjyWSKSI8-244">
          <mxGeometry x="70" width="120" height="30" as="geometry">
            <mxRectangle width="120" height="30" as="alternateBounds" />
          </mxGeometry>
        </mxCell>
        <mxCell id="FE8MuQwXkAdMjyWSKSI8-247" style="edgeStyle=orthogonalEdgeStyle;rounded=0;orthogonalLoop=1;jettySize=auto;html=1;" edge="1" parent="IUlH90X3DAipF4unwecq-12" source="IUlH90X3DAipF4unwecq-58" target="FE8MuQwXkAdMjyWSKSI8-59">
          <mxGeometry relative="1" as="geometry" />
        </mxCell>
        <mxCell id="1" parent="0" />
      </root>
    </mxGraphModel>
  </diagram>
</mxfile>
